<svg xmlns="http://www.w3.org/2000/svg" viewBox="0 0 238.79 229.49"><defs><style>.cls-1,.cls-2{fill:#ffde29;}.cls-1{fill-rule:evenodd;}</style></defs><title>Asset 1</title><g id="Layer_2" data-name="Layer 2"><g id="Layer_1-2" data-name="Layer 1"><path class="cls-1" d="M223.48,56.93a114.61,114.61,0,0,1,6.72,100.76,33.43,33.43,0,0,0,1.52-11.63,25.07,25.07,0,0,0-.34-3,111.11,111.11,0,0,0-9.1-80.83c.39-1.88.81-3.68,1.2-5.27ZM109.42,227.66A116.37,116.37,0,0,1,95.74,225c.41-.87.77-1.75,1.1-2.61A132.88,132.88,0,0,0,109.42,227.66Zm39.93-5.48a110.84,110.84,0,0,0,58.41-35,45.26,45.26,0,0,0,10.46-9,78.41,78.41,0,0,0,5.66-7.48,114.57,114.57,0,0,1-77.21,55.78A29.1,29.1,0,0,0,149.35,222.18ZM17.89,145.38a111,111,0,0,0,34.5,53.15c.7,2.21,1.46,4.38,2.3,6.49A114.71,114.71,0,0,1,14,144.73a4.5,4.5,0,0,0,1.83.78A4.36,4.36,0,0,0,17.89,145.38Zm14.31-93A110.62,110.62,0,0,0,18.47,81a4.22,4.22,0,0,0-2.6-1.78,5.86,5.86,0,0,0-.58-.1A114.27,114.27,0,0,1,35.23,42.24,48.44,48.44,0,0,0,32.2,52.4ZM136.37.29A113.9,113.9,0,0,1,193.8,23.17c-.29.11-.57.23-.84.35a12.82,12.82,0,0,1-3.13,1,1.22,1.22,0,0,1-.27,0A110.31,110.31,0,0,0,149.32,6.1,82.52,82.52,0,0,0,136.37.29Z"/><path class="cls-1" d="M121.37,1.21c-6.2-2.27-20.85-.8-26,.05-6.12,1-18.84,4.82-24.71,9.05.6.09,4.9-.53,6-.66,7.92-.89,1.93,1.56,12.86-1.86,2.26-.7,4.16-1.11,6.33-1.66,5.69-1.43,13-2.12,19-2.58,3.12-.24,3.22.8,6.51-2.34m31,25.58c1.84-2.74,2.84-6.46,5.13-10A76.7,76.7,0,0,0,129.78,2.75c-4.22-1.16-5.65-2-9.21,1.81,6.31,5.34,9.58,9.88,14.56,15.5,1.84,2.09,5.93,2.41,8.48,3.29S150.34,26.34,152.4,26.79ZM35.86,59.28,49.94,58c9-.06,1.26,1.58,18.13-14.11,3.54-3.29,13.82-10.76,13.83-10.77-.14-4-.52-6.6-.35-10.62a42,42,0,0,1,.32-5.25,44.73,44.73,0,0,0,.65-5.69c-3.56-1-12.32.8-16.19,2-4.24,1.26-11.38,8-14.94,11.88C41.62,36.05,36,47.91,35.86,59.28ZM151.07,31a16.12,16.12,0,0,1,.9-2c-3.64-2.66-12.14-5.14-16.23-6.15-3.32,3.11-6.55,6.66-9.72,9.69s-7.64,6.47-10.12,9.28a70,70,0,0,1,2.79,7.37A50.57,50.57,0,0,1,133.62,34.8l.09,0c3.29-2,7.62-4.17,11.5-4.38A19,19,0,0,1,151.07,31ZM93.35,79.38l1.45.05c2.53.11,4.56.63,6.93.86,2.55.24,3.69-.7,5.32-.9a61.43,61.43,0,0,1,1.32-6.45,77.32,77.32,0,0,1,9-21.7c-.24-.74-.46-1.4-.67-1.94-3.1-8.06-.65-6.68-9.53-8.58L85.85,35.66c-3.58-1-3.72-.35-7,1.8A90.1,90.1,0,0,0,66,48.47c-1.93,1.9-4.21,4.31-6.09,6.39-4.5,5-4.58,3-1.4,14.32.24.85.42,1.66.6,2.44,2-.25,4.09-.44,6.15-.55C73.67,70.63,88.77,70.46,93.35,79.38Z"/><polygon class="cls-1" points="0 99.98 14.88 83.42 23.28 113.9 35.76 100.46 44.4 166.7 27.12 129.74 16.56 141.26 0 99.98"/><path class="cls-2" d="M86.52,212c.43,4.92,1.26,7.33,2.46,7.26,1.46-.07,2.89-1.19,4.36-3.38-2.45-1.41-4.72-2.71-6.82-3.88m22-14a66.79,66.79,0,0,0,25.9-6.23,13.78,13.78,0,0,0,2.22,1,76.41,76.41,0,0,0,16,3.42q-1,5.47-2.68,11.69Q144.7,227.59,136.57,228q-17.71.93-42.25-11.66c-2.55,8.57-5.43,13-8.58,13.13q-9.94.53-16.82-16.28a114.37,114.37,0,0,1-6.83-26.32c-1.29-5.63-2.73-14-4.4-25.21-.28,6.5-.28,12.86.05,19.12q1,19.65,7.32,34.77-12.42-17.93-14.93-57c-1.12-18.23-2.05-31-2.77-38.47C45.67,99.87,43.76,88,41.71,84.45a4.14,4.14,0,0,1-.32-1.31c-.12-2.28,3.23-4.2,10-5.76a82.07,82.07,0,0,1,14.11-2q24.32-1.27,24.82,8.92a33,33,0,0,1-1.48,8.84A69.2,69.2,0,0,0,86.53,103Q86.1,109,85.6,136q-.88,36.47-.2,59.41A64.14,64.14,0,0,0,108.57,198.06Z"/><path class="cls-2" d="M155.19,85.79c.44,8.42,4.76,13.92,13.05,16.48q57.84,18.9,59.17,44,.71,13.49-12.48,29t-42,17c-13.76.72-25.42-.5-34.89-3.66-3.39-1.19-6.77-4.67-10.2-10.47-.28-.48-.55-1-.81-1.43a17.12,17.12,0,0,0,4.49-1.73l.08-.05a8.58,8.58,0,0,0,3.9-4.12A77.08,77.08,0,0,0,148,174a125.67,125.67,0,0,0,27,1.49,87.1,87.1,0,0,0,9.68-1c-12.83,1.17-24.08.64-33.67-1.64A55,55,0,0,1,135.6,167c0-.09-.07-.18-.11-.27a4.31,4.31,0,0,0-.21-2.67,62.78,62.78,0,0,0,14.07,5.1,82.84,82.84,0,0,0,25,2.72q23.94-1.26,23.36-12c-.13-2.49-1.36-5.29-3.72-8.33q-4.16-5.27-16.74-11.55l.66-4.42c.54-3.66,1.56-10.21.84-13.83a9.83,9.83,0,0,0-.34-1.32,4.76,4.76,0,0,0-2-2.51l-.16-.21c-1.62-2.21-4.36-2.85-6.95-3h-.09a22.11,22.11,0,0,0-5.07.39,31.85,31.85,0,0,0-3.9,1.09l-.2.08a14.14,14.14,0,0,0-2.93,1.48A5.08,5.08,0,0,0,154.7,123a4.74,4.74,0,0,0,3.71,3.68,10.84,10.84,0,0,1,1.27,3.61q.21,1.07.36,2.16l-4.67-1.92c-2.88-4.9-6.75-10.1-10.94-10.9l-.14,0a8.5,8.5,0,0,0-2.89.09,12.58,12.58,0,0,0-5.47,2.82c-4.13-1.71-6.46-2.69-7-2.92a31.89,31.89,0,0,1-12.62-13,41.13,41.13,0,0,1-5.47-17.92A47.46,47.46,0,0,1,112.55,74Q119,49,135.91,38.47c4.07-2.42,7.25-3.67,9.53-3.79a16.29,16.29,0,0,1,6.08,1,14.72,14.72,0,0,0,4.26,1.14c.78,0,6.22-.91,16.28-2.56.66-4.85,3.19-7.35,7.66-7.59a13.5,13.5,0,0,1,5,1.07,15.13,15.13,0,0,0,5.38,1,15.4,15.4,0,0,0,4.62-1.33,14.67,14.67,0,0,1,4.71-1.37c5.43-.28,12.13,2.32,20,7.72,1.42.92,2.22,2.63,2.35,5.11q.3,5.73-2.47,17c-1.81,7.45-2.64,13.1-2.44,16.91a34.11,34.11,0,0,0,.58,3.92A41.66,41.66,0,0,1,218,81c.17,3.15-.74,7.19-2.77,12.08s-4.2,8-6.59,9.11l-3,1c-.77.29-1.55,1.25-2.26,2.91a.71.71,0,0,1-.22.51,3.16,3.16,0,0,1-1-1.9q-1.87-13.18-8.26-39.26Q190.52,56.09,180.19,45a25,25,0,0,0-11.14,5.57q-5.6,5-10,16.23c-2.89,7.47-4.18,13.77-3.91,19"/><path class="cls-2" d="M174.14,121.69q.13,0,.33.93.53,2.72-.88,12.36c-1.13,7.53-1.86,12.4-2.18,14.58-1.38,8.4-2.36,12.92-2.91,13.55a5.53,5.53,0,0,1-2.62,1.83,1.56,1.56,0,0,1-1.84-.87,3.47,3.47,0,0,1-1.26.56,2.68,2.68,0,0,1-1.47-.09q-2.15-.57-7.7-11.3a27.05,27.05,0,0,0,4.63,10.16q-2.16-1.1-5.91-7.14-1.82-2.91-4.8-8.19c-3.14-5.62-4.79-8.53-4.93-8.77q-4.09-6.66-6.08-6.91c-.84-.06-1.31-.36-1.41-.88-.25-1.26.55-2.79,2.41-4.62a10.07,10.07,0,0,1,4.72-3,4.2,4.2,0,0,1,1.38-.07q4.11.8,11.38,15.11,4.51,9.56,9,19.09,1.71-19.68,0-28.62c-.81-4.1-2.24-6.42-4.29-6.93-.43-.06-.66-.19-.7-.36-.09-.5.78-1.11,2.61-1.84a29.1,29.1,0,0,1,3.36-.94,17.77,17.77,0,0,1,4.09-.31c1.95.11,3.18.53,3.71,1.24a3,3,0,0,1,.44,1.19,12.62,12.62,0,0,1,.11,2.86,13.89,13.89,0,0,0,.07,2.7.07.07,0,0,0,.09,0c.27,0,.48-1.52.65-4.4a2.87,2.87,0,0,1,.08-1m-65.4,11.71a68.68,68.68,0,0,0,9.6-3.36q-8.78,2.52-10.52,2.87a27.14,27.14,0,0,1-5.09.52A16.83,16.83,0,0,0,108.74,133.4Zm18.84-6.64a12.85,12.85,0,0,1,3.39-.39,2.55,2.55,0,0,1,2.13,2.34,7.3,7.3,0,0,1-.24,3.45c-.47,1.56-1.17,2.43-2.1,2.62s-2.57.41-4.52.6c-2.33.21-3.85.38-4.61.53a23.6,23.6,0,0,0,.43,2.89c.31,1.59,1.49,5.93,3.51,13,.36,1.44,1.06,3.56,2.07,6.36a69.68,69.68,0,0,0,3.65,7.52q-4-4.26-7.3-13.42c.06.58.15,1.14.26,1.71a27.19,27.19,0,0,0,7,13.93,1.67,1.67,0,0,1,.33.63c.19.94-.5,1.85-2.07,2.76a12.7,12.7,0,0,1-3.56,1.34c-2.88.57-5.2.08-6.92-1.47-.91-.83-1.73-3-2.44-6.6-.67-3.36-1.42-9.57-2.3-18.63-.42-4.52-.76-7.41-1-8.65-4.13.82-6.66,1.47-7.57,2a1.27,1.27,0,0,1-.4.15c-.88.18-1.9-.47-3.07-1.9a8.67,8.67,0,0,1-1.84-3.43q-.19-1,.42-1.08a1.58,1.58,0,0,1,.54,0,9.91,9.91,0,0,0,2.85-.29q3.94-.78,11.68-3T127.58,126.76Z"/><path class="cls-1" d="M97.91,164.3l1,9.12,7-5.76Zm3.36-6a10.08,10.08,0,1,1-10.08,10.08A10.08,10.08,0,0,1,101.27,158.3Z"/></g></g></svg>