<svg xmlns="http://www.w3.org/2000/svg" viewBox="0 0 975.98 232.22"><defs><style>.cls-1,.cls-2{fill:#ffde29;}.cls-1{fill-rule:evenodd;}</style></defs><title>Asset 2</title><g id="Layer_2" data-name="Layer 2"><g id="Layer_1-2" data-name="Layer 1"><path class="cls-1" d="M223.48,56.93a114.61,114.61,0,0,1,6.72,100.76,33.43,33.43,0,0,0,1.52-11.63,25.07,25.07,0,0,0-.34-3,111.11,111.11,0,0,0-9.1-80.83c.39-1.88.81-3.68,1.2-5.27ZM109.42,227.66A116.37,116.37,0,0,1,95.74,225c.41-.87.77-1.75,1.1-2.61A132.88,132.88,0,0,0,109.42,227.66Zm39.93-5.48a110.84,110.84,0,0,0,58.41-35,45.26,45.26,0,0,0,10.46-9,78.41,78.41,0,0,0,5.66-7.48,114.57,114.57,0,0,1-77.21,55.78A29.1,29.1,0,0,0,149.35,222.18ZM17.89,145.38a111,111,0,0,0,34.5,53.15c.7,2.21,1.46,4.38,2.3,6.49A114.71,114.71,0,0,1,14,144.73a4.5,4.5,0,0,0,1.83.78A4.36,4.36,0,0,0,17.89,145.38Zm14.31-93A110.62,110.62,0,0,0,18.47,81a4.22,4.22,0,0,0-2.6-1.78,5.86,5.86,0,0,0-.58-.1A114.27,114.27,0,0,1,35.23,42.24,48.44,48.44,0,0,0,32.2,52.4ZM136.37.29A113.9,113.9,0,0,1,193.8,23.17c-.29.11-.57.23-.84.35a12.82,12.82,0,0,1-3.13,1,1.22,1.22,0,0,1-.27,0A110.31,110.31,0,0,0,149.32,6.1,82.52,82.52,0,0,0,136.37.29Z"/><path class="cls-1" d="M121.37,1.21c-6.2-2.27-20.85-.8-26,.05-6.12,1-18.84,4.82-24.71,9.05.6.09,4.9-.53,6-.66,7.92-.89,1.93,1.56,12.86-1.86,2.26-.7,4.16-1.11,6.33-1.66,5.69-1.43,13-2.12,19-2.58,3.12-.24,3.22.8,6.51-2.34m31,25.58c1.84-2.74,2.84-6.46,5.13-10A76.7,76.7,0,0,0,129.78,2.75c-4.22-1.16-5.65-2-9.21,1.81,6.31,5.34,9.58,9.88,14.56,15.5,1.84,2.09,5.93,2.41,8.48,3.29S150.34,26.34,152.4,26.79ZM35.86,59.28,49.94,58c9-.06,1.26,1.58,18.13-14.11,3.54-3.29,13.82-10.76,13.83-10.77-.14-4-.52-6.6-.35-10.62a42,42,0,0,1,.32-5.25,44.73,44.73,0,0,0,.65-5.69c-3.56-1-12.32.8-16.19,2-4.24,1.26-11.38,8-14.94,11.88C41.62,36.05,36,47.91,35.86,59.28ZM151.07,31a16.12,16.12,0,0,1,.9-2c-3.64-2.66-12.14-5.14-16.23-6.15-3.32,3.11-6.55,6.66-9.72,9.69s-7.64,6.47-10.12,9.28a70,70,0,0,1,2.79,7.37A50.57,50.57,0,0,1,133.62,34.8l.09,0c3.29-2,7.62-4.17,11.5-4.38A19,19,0,0,1,151.07,31ZM93.35,79.38l1.45.05c2.53.11,4.56.63,6.93.86,2.55.24,3.69-.7,5.32-.9a61.43,61.43,0,0,1,1.32-6.45,77.32,77.32,0,0,1,9-21.7c-.24-.74-.46-1.4-.67-1.94-3.1-8.06-.65-6.68-9.53-8.58L85.85,35.66c-3.58-1-3.72-.35-7,1.8A90.1,90.1,0,0,0,66,48.47c-1.93,1.9-4.21,4.31-6.09,6.39-4.5,5-4.58,3-1.4,14.32.24.85.42,1.66.6,2.44,2-.25,4.09-.44,6.15-.55C73.67,70.63,88.77,70.46,93.35,79.38Z"/><polygon class="cls-1" points="0 99.98 14.88 83.42 23.28 113.9 35.76 100.46 44.4 166.7 27.12 129.74 16.56 141.26 0 99.98"/><path class="cls-2" d="M86.52,212c.43,4.92,1.26,7.33,2.46,7.26,1.46-.07,2.89-1.19,4.36-3.38-2.45-1.41-4.72-2.71-6.82-3.88m22-14a66.79,66.79,0,0,0,25.9-6.23,13.78,13.78,0,0,0,2.22,1,76.41,76.41,0,0,0,16,3.42q-1,5.47-2.68,11.69Q144.7,227.59,136.57,228q-17.71.93-42.25-11.66c-2.55,8.57-5.43,13-8.58,13.13q-9.94.53-16.82-16.28a114.37,114.37,0,0,1-6.83-26.32c-1.29-5.63-2.73-14-4.4-25.21-.28,6.5-.28,12.86.05,19.12q1,19.65,7.32,34.77-12.42-17.93-14.93-57c-1.12-18.23-2.05-31-2.77-38.47C45.67,99.87,43.76,88,41.71,84.45a4.14,4.14,0,0,1-.32-1.31c-.12-2.28,3.23-4.2,10-5.76a82.07,82.07,0,0,1,14.11-2q24.32-1.27,24.82,8.92a33,33,0,0,1-1.48,8.84A69.2,69.2,0,0,0,86.53,103Q86.1,109,85.6,136q-.88,36.47-.2,59.41A64.14,64.14,0,0,0,108.57,198.06Z"/><path class="cls-2" d="M155.19,85.79c.44,8.42,4.76,13.92,13.05,16.48q57.84,18.9,59.17,44,.71,13.49-12.48,29t-42,17c-13.76.72-25.42-.5-34.89-3.66-3.39-1.19-6.77-4.67-10.2-10.47-.28-.48-.55-1-.81-1.43a17.12,17.12,0,0,0,4.49-1.73l.08-.05a8.58,8.58,0,0,0,3.9-4.12A77.08,77.08,0,0,0,148,174a125.67,125.67,0,0,0,27,1.49,87.1,87.1,0,0,0,9.68-1c-12.83,1.17-24.08.64-33.67-1.64A55,55,0,0,1,135.6,167c0-.09-.07-.18-.11-.27a4.31,4.31,0,0,0-.21-2.67,62.78,62.78,0,0,0,14.07,5.1,82.84,82.84,0,0,0,25,2.72q23.94-1.26,23.36-12c-.13-2.49-1.36-5.29-3.72-8.33q-4.16-5.27-16.74-11.55l.66-4.42c.54-3.66,1.56-10.21.84-13.83a9.83,9.83,0,0,0-.34-1.32,4.76,4.76,0,0,0-2-2.51l-.16-.21c-1.62-2.21-4.36-2.85-6.95-3h-.09a22.11,22.11,0,0,0-5.07.39,31.85,31.85,0,0,0-3.9,1.09l-.2.08a14.14,14.14,0,0,0-2.93,1.48A5.08,5.08,0,0,0,154.7,123a4.74,4.74,0,0,0,3.71,3.68,10.84,10.84,0,0,1,1.27,3.61q.21,1.07.36,2.16l-4.67-1.92c-2.88-4.9-6.75-10.1-10.94-10.9l-.14,0a8.5,8.5,0,0,0-2.89.09,12.58,12.58,0,0,0-5.47,2.82c-4.13-1.71-6.46-2.69-7-2.92a31.89,31.89,0,0,1-12.62-13,41.13,41.13,0,0,1-5.47-17.92A47.46,47.46,0,0,1,112.55,74Q119,49,135.91,38.47c4.07-2.42,7.25-3.67,9.53-3.79a16.29,16.29,0,0,1,6.08,1,14.72,14.72,0,0,0,4.26,1.14c.78,0,6.22-.91,16.28-2.56.66-4.85,3.19-7.35,7.66-7.59a13.5,13.5,0,0,1,5,1.07,15.13,15.13,0,0,0,5.38,1,15.4,15.4,0,0,0,4.62-1.33,14.67,14.67,0,0,1,4.71-1.37c5.43-.28,12.13,2.32,20,7.72,1.42.92,2.22,2.63,2.35,5.11q.3,5.73-2.47,17c-1.81,7.45-2.64,13.1-2.44,16.91a34.11,34.11,0,0,0,.58,3.92A41.66,41.66,0,0,1,218,81c.17,3.15-.74,7.19-2.77,12.08s-4.2,8-6.59,9.11l-3,1c-.77.29-1.55,1.25-2.26,2.91a.71.71,0,0,1-.22.51,3.16,3.16,0,0,1-1-1.9q-1.87-13.18-8.26-39.26Q190.52,56.09,180.19,45a25,25,0,0,0-11.14,5.57q-5.6,5-10,16.23c-2.89,7.47-4.18,13.77-3.91,19"/><path class="cls-2" d="M174.14,121.69q.13,0,.33.93.53,2.72-.88,12.36c-1.13,7.53-1.86,12.4-2.18,14.58-1.38,8.4-2.36,12.92-2.91,13.55a5.53,5.53,0,0,1-2.62,1.83,1.56,1.56,0,0,1-1.84-.87,3.47,3.47,0,0,1-1.26.56,2.68,2.68,0,0,1-1.47-.09q-2.15-.57-7.7-11.3a27.05,27.05,0,0,0,4.63,10.16q-2.16-1.1-5.91-7.14-1.82-2.91-4.8-8.19c-3.14-5.62-4.79-8.53-4.93-8.77q-4.09-6.66-6.08-6.91c-.84-.06-1.31-.36-1.41-.88-.25-1.26.55-2.79,2.41-4.62a10.07,10.07,0,0,1,4.72-3,4.2,4.2,0,0,1,1.38-.07q4.11.8,11.38,15.11,4.51,9.56,9,19.09,1.71-19.68,0-28.62c-.81-4.1-2.24-6.42-4.29-6.93-.43-.06-.66-.19-.7-.36-.09-.5.78-1.11,2.61-1.84a29.1,29.1,0,0,1,3.36-.94,17.77,17.77,0,0,1,4.09-.31c1.95.11,3.18.53,3.71,1.24a3,3,0,0,1,.44,1.19,12.62,12.62,0,0,1,.11,2.86,13.89,13.89,0,0,0,.07,2.7.07.07,0,0,0,.09,0c.27,0,.48-1.52.65-4.4a2.87,2.87,0,0,1,.08-1m-65.4,11.71a68.68,68.68,0,0,0,9.6-3.36q-8.78,2.52-10.52,2.87a27.14,27.14,0,0,1-5.09.52A16.83,16.83,0,0,0,108.74,133.4Zm18.84-6.64a12.85,12.85,0,0,1,3.39-.39,2.55,2.55,0,0,1,2.13,2.34,7.3,7.3,0,0,1-.24,3.45c-.47,1.56-1.17,2.43-2.1,2.62s-2.57.41-4.52.6c-2.33.21-3.85.38-4.61.53a23.6,23.6,0,0,0,.43,2.89c.31,1.59,1.49,5.93,3.51,13,.36,1.44,1.06,3.56,2.07,6.36a69.68,69.68,0,0,0,3.65,7.52q-4-4.26-7.3-13.42c.06.58.15,1.14.26,1.71a27.19,27.19,0,0,0,7,13.93,1.67,1.67,0,0,1,.33.63c.19.94-.5,1.85-2.07,2.76a12.7,12.7,0,0,1-3.56,1.34c-2.88.57-5.2.08-6.92-1.47-.91-.83-1.73-3-2.44-6.6-.67-3.36-1.42-9.57-2.3-18.63-.42-4.52-.76-7.41-1-8.65-4.13.82-6.66,1.47-7.57,2a1.27,1.27,0,0,1-.4.15c-.88.18-1.9-.47-3.07-1.9a8.67,8.67,0,0,1-1.84-3.43q-.19-1,.42-1.08a1.58,1.58,0,0,1,.54,0,9.91,9.91,0,0,0,2.85-.29q3.94-.78,11.68-3T127.58,126.76Z"/><path class="cls-1" d="M97.91,164.3l1,9.12,7-5.76Zm3.36-6a10.08,10.08,0,1,1-10.08,10.08A10.08,10.08,0,0,1,101.27,158.3Z"/><path class="cls-2" d="M719.27,36.88q9.16-2.49,18.32-5c6.41-1.72,12.8-3.49,19.23-5.1,6.14-1.53,12.31-2.9,18.47-4.34,2.6-.61,5.18-1.3,7.79-1.83,4.2-.84,8.43-1.59,12.65-2.35,2.24-.4,4.48-.81,6.73-1.08,3.65-.45,7.31-.8,11-1.15a40.32,40.32,0,0,1,10.75.39c2.49.43,4.89,1.14,6.73,3.05,2,2.12,2.18,4.67,1.71,7.33-.86,4.84-3.22,9-5.7,13.16A177.46,177.46,0,0,1,813,59.56c-3.5,4.37-7,8.75-10.48,13.1-2.18,2.69-4.43,5.33-6.64,8-.26.31-.48.66-.94,1.31,2.26-.87,4.15-1.65,6.08-2.34a53.49,53.49,0,0,1,18.71-3.13,2.41,2.41,0,0,0,2.29-1A132.82,132.82,0,0,0,835.5,54.79c3-5.85,5.62-11.91,8.41-17.87a.59.59,0,0,1,.36-.37c-2.53,14.53-8.74,27.63-15.83,40.5,2.17.54,4.26.92,6.26,1.59,3.07,1,6.08,2.22,9.08,3.43.82.33,1.16.5,1.58-.55,2.87-7.29,6-14.47,8.7-21.83A143.91,143.91,0,0,0,858.62,44a37.68,37.68,0,0,0,.83-14.24c-1.05-7.33-5.32-12-12.15-14.35a46.15,46.15,0,0,0-17.1-2.27c-5.52.21-11.06.43-16.54,1.06-6.27.71-12.49,1.8-18.71,2.88-5.46.95-10.89,2-16.31,3.19-7.32,1.56-14.61,3.22-21.91,4.87-5.2,1.18-10.39,2.41-15.65,3.44,1.09-.33,2.19-.68,3.29-1,5.62-1.51,11.23-3.05,16.86-4.5s11-2.76,16.54-4.09c3.85-.92,7.7-1.82,11.57-2.64C795,15.18,800.7,14,806.4,13c3.83-.72,7.68-1.36,11.55-1.81,4.76-.54,9.54-1,14.32-1.21a105.54,105.54,0,0,1,13.31.26c5.08.45,10,1.69,14.18,4.91a17.31,17.31,0,0,1,6.5,11.29c1.13,6.58,0,13-1.46,19.32-2.8,12.17-7.44,23.71-12.25,35.18-.61,1.45-1.25,2.89-1.82,4.36a1.1,1.1,0,0,0,.15,1c3,2.61,6.08,5.18,9.13,7.76l.65.51c7.16-18.57,14-37.11,17.62-56.71,0,1.11.13,2.22.11,3.33a147.31,147.31,0,0,1-3.16,27.61c-1.53,7.33-3.39,14.6-5.12,21.9-1,4.05-2,8.1-3,12.16a1.41,1.41,0,0,0,.14,1,54.61,54.61,0,0,1,6.09,14.59,9.39,9.39,0,0,0,.47,1c.4-1,.76-1.64,1-2.36,2.68-8.61,5.42-17.21,8-25.86,1.57-5.31,2.77-10.72,4.28-16a169.45,169.45,0,0,0,4.72-23.5,76.25,76.25,0,0,0,.57-17.41,32.75,32.75,0,0,0-5.39-16,22.15,22.15,0,0,0-7.29-6.55,41.88,41.88,0,0,0-19.1-5.16,145.41,145.41,0,0,0-14.76-.14c-6,.33-12.05,1-18.05,1.79-5.19.64-10.37,1.5-15.53,2.35-3.27.54-6.5,1.24-9.75,1.87-4,.78-8,1.52-12,2.38-5.51,1.17-11,2.44-16.5,3.66-3.06.68-6.11,1.36-9.2,2,2.37-.7,4.73-1.47,7.12-2.09,6.29-1.63,12.59-3.25,18.91-4.77,5.06-1.21,10.16-2.25,15.23-3.38,2.4-.54,4.76-1.19,7.17-1.66,4.16-.83,8.35-1.57,12.53-2.33,2.53-.46,5.06-1,7.61-1.31,4.37-.61,8.74-1.21,13.13-1.64,4-.4,7.94-.76,11.92-.79,8.05-.08,16.05.38,23.66,3.43a24.72,24.72,0,0,1,13.08,11.24,36.66,36.66,0,0,1,4,13.88A88.67,88.67,0,0,1,898.1,54.7c-1,5.93-1.92,11.88-3.29,17.72-2,8.67-4.35,17.27-6.75,25.84-2.08,7.42-4.44,14.77-6.71,22.13-1.85,6-3.75,12-5.63,17.92-1.48,4.75-2.74,9.58-4.48,14.23a53.42,53.42,0,0,1-13.45,20A54.42,54.42,0,0,1,845,181.68,55,55,0,0,1,829.17,187a56.07,56.07,0,0,1-20.3-.14A55.23,55.23,0,0,1,791.08,180a54.51,54.51,0,0,1-12.59-10.18,49.2,49.2,0,0,1-9.85-15.21A86.36,86.36,0,0,1,765,143.51a49.86,49.86,0,0,1-1.14-13A52.66,52.66,0,0,1,767.22,113a65.88,65.88,0,0,1,5.33-10.7,121.13,121.13,0,0,1,8.33-11.92c3.38-4.28,7.1-8.28,10.68-12.4,3.18-3.66,6.44-7.27,9.54-11,4.07-4.89,8.1-9.8,12-14.83,4.25-5.52,8.33-11.18,11.19-17.59,1.2-2.7,2.12-5.48,1.74-8.51a6.32,6.32,0,0,0-3.23-4.71,17.55,17.55,0,0,0-9.52-2.3c-5.27.08-10.56.29-15.79.85-4.9.52-9.76,1.53-14.62,2.4-4,.71-7.94,1.46-11.88,2.32-6,1.31-12,2.7-18,4.12q-10.74,2.55-21.45,5.22c-3.59.89-7.15,1.94-10.72,2.9-.48.13-1,.21-1.48.31l-.06-.25m72,138.18c-1.1-.85-2.22-1.69-3.31-2.56-1.34-1.07-2.66-2.18-4-3.27a1.16,1.16,0,0,0,.42.88c1.33,1.14,2.63,2.31,4,3.37a29.34,29.34,0,0,0,2.78,1.73c1.31.84,2.57,1.78,3.94,2.5,2.09,1.09,4.25,2,6.39,3l.3-.47a4.28,4.28,0,0,0-.87-.74c-1.75-.77-3.55-1.43-5.28-2.23C794.13,176.62,792.7,175.81,791.24,175.06Zm29.31-36.8c1.7,3.88,3.45,7.74,5.09,11.65a6.25,6.25,0,0,0,4.15,3.47,24.9,24.9,0,0,0,9.93.87A22.1,22.1,0,0,0,846,153c3.33-1.3,5.42-4.1,7.3-7a20.9,20.9,0,0,0,1.85-21.17c-1.4-3.21-3.48-5.69-7-6.62a50.51,50.51,0,0,0-12.85-1.31,7.9,7.9,0,0,0-6.76,3.83c-2,3-4.06,5.91-6.16,8.82C820.4,132.16,819.46,135,820.55,138.26ZM805.19,98.35a34.39,34.39,0,0,0-5.54,3.41,28.65,28.65,0,0,0-7.22,10.34,11.85,11.85,0,0,0-.83,7.52,34.5,34.5,0,0,0,3.91,9.52,7.27,7.27,0,0,0,6.67,4.08c1,0,2.06.11,3.08.07,3.13-.1,6.27-.18,9.39-.41a7.42,7.42,0,0,0,5.37-2.5c2.43-3,4.72-6,7-9.13,2.77-3.76,2.65-7.72.68-11.77-.9-1.86-1.65-3.8-2.64-5.6-1.46-2.63-3.34-4.77-6.42-5.7C814.3,96.86,810.07,97.8,805.19,98.35ZM780,117.49a7.75,7.75,0,0,0-5.23,4.91c-.56,1.48-1.1,3-1.57,4.48-1.92,6.22-2.59,12.45.35,18.57,1.36,2.85,3,5.57,5.86,7.16,3.6,2,7.38,1.46,11.11.27,2-.62,2.61-2.13,2.68-4.07a46.19,46.19,0,0,1,.38-5.39,25.27,25.27,0,0,1,3.1-8.89,1.45,1.45,0,0,0-.09-1.94,12.1,12.1,0,0,1-1.82-3c-1.4-3.09-2.76-6.2-4-9.34-.77-1.9-2-3.15-4.08-3.13S782.17,117.38,780,117.49Zm51.85,62c1.85-.85,4.21-1.81,6.44-3,3.51-1.86,6.76-4.07,9-7.44,1.91-2.83,2.6-6.49,0-9.5a10.93,10.93,0,0,0-6.95-3.81,104.2,104.2,0,0,0-10.9-.66,4.31,4.31,0,0,0-2.65,1.1c-3.69,3.26-7.57,6.2-12.24,7.95a2.53,2.53,0,0,0-1.62,2.53,19.65,19.65,0,0,0,1.76,8.15,6,6,0,0,0,2,2.59C821.19,180.47,826.1,181.05,831.8,179.52Zm-22.11-.31c.41-.15.81-.29,1.21-.47,2.08-.91,2.7-1.91,2.29-4.13s-.92-4.29-1.47-6.42a6.23,6.23,0,0,0-4.08-4.43,33.63,33.63,0,0,1-9.54-5.69c-1.38-1.17-2.81-2.56-4.46-3.08-4-1.24-8-.18-12,.43-.58.09-1.29,1.28-1.41,2a10.9,10.9,0,0,0,3,9.6A44.6,44.6,0,0,0,801,178.5C803.86,179.47,806.7,180.11,809.69,179.21Zm-4-97A18.9,18.9,0,0,0,797,86.8c-.91.89-1.29,1.87-.45,3,1.69,2.2,3.46,4.34,5.15,6.54a3.63,3.63,0,0,0,3.87,1.31c5-.78,10.06-1.26,15-2.25a43.5,43.5,0,0,0,9.66-3.08c3.73-1.71,3.91-4.41.8-7.1s-6.76-3.78-10.61-4.45C815.4,79.85,810.52,80.88,805.69,82.25ZM869,117c-.75-2-1.43-4-2.28-5.9a11,11,0,0,0-1.86-3,14.78,14.78,0,0,0-6.63-4c-2.53-.81-3.78.06-3.95,2.7,0,.17,0,.34,0,.51a33.17,33.17,0,0,1-2,10.42,1.61,1.61,0,0,0,.29,1.3c2.77,3.67,4.85,7.6,5,12.33a7.14,7.14,0,0,0,5.36,7c2.68.89,4.55.06,5.5-2.53A28.43,28.43,0,0,0,869,117ZM833.33,82.39c-2.4.78-2.52,1.31-1,2.68a8.36,8.36,0,0,1,1.3,1.43,14.67,14.67,0,0,0,5.66,4.85,64.58,64.58,0,0,1,7.32,4.21c2.11,1.48,3.87,3.47,5.88,5.11a10.66,10.66,0,0,0,7.07,2.54c1.06,0,1.39-.59.9-1.54A8.5,8.5,0,0,0,859,99.55c-2.06-2.1-4.12-4.21-6.31-6.17-4.68-4.21-9.63-8-15.78-9.93C835.58,83,834.25,82.66,833.33,82.39ZM777,103.09c-5.71,5.06-11.52,27.47-8.79,33.79a4.75,4.75,0,0,0,2.53-3.34c2.09-6.65,2.63-13.58,3.64-20.42C774.9,109.69,775.37,106.25,777,103.09Zm56.3,79c10.4-3.2,18.95-8.55,25.63-16.51-1.65.49-3.35,1-5.07,1.49a13.82,13.82,0,0,0-5.47,3,59,59,0,0,1-4.65,4c-2.42,1.69-5,3.09-7.52,4.69A6,6,0,0,0,833.32,182.07Zm33.71-30a47,47,0,0,0,4-21C868.69,137.9,868.62,145.14,867,152.1ZM797,85.83l-.21-.34-9.14,5.67.24.38C791.19,90.1,794.74,89,797,85.83Z"/><path class="cls-2" d="M709.92,101.31c0,6.8,3.25,11.43,9.82,13.84q45.84,17.7,45.85,38,0,10.91-11.3,22.89t-34.55,12c-11.13,0-20.48-1.47-28-4.42-2.68-1.11-5.26-4.06-7.77-8.88s-3.72-8.92-3.72-12.3q0-.81.3-.81c.27,0,.57.44,1,1.28,2.81,4,9.12,7.07,18.87,9.25a102.11,102.11,0,0,0,21.68,2.34,71,71,0,0,0,7.85-.4c-10.39.4-19.44-.5-27.08-2.75-10.5-3.15-16.59-7.41-18.37-12.87,3.15,4,8.88,7.27,17.19,9.82a66.65,66.65,0,0,0,20,3.25q19.35,0,19.34-8.64c0-2-.87-4.33-2.65-6.88-3-4.32-11-9.48-23.66-15.51-17.26-8.18-26.41-12.54-27.38-13a25.71,25.71,0,0,1-9.62-11.06,33.25,33.25,0,0,1-3.65-14.68A38.47,38.47,0,0,1,676,90q6.29-19.91,20.35-27.68c3.38-1.78,6-2.65,7.84-2.65a13.09,13.09,0,0,1,4.86,1.07,11.93,11.93,0,0,0,3.38,1.11c.64,0,5.07-.47,13.24-1.37.74-3.89,2.89-5.8,6.51-5.8a10.86,10.86,0,0,1,3.95,1.07,12.26,12.26,0,0,0,4.29,1.07,12.47,12.47,0,0,0,3.79-.87,11.72,11.72,0,0,1,3.85-.9c4.39,0,9.69,2.38,15.82,7.07,1.11.8,1.68,2.21,1.68,4.22q0,4.62-2.72,13.57c-1.77,5.94-2.68,10.46-2.68,13.54a27.29,27.29,0,0,0,.3,3.19,33.21,33.21,0,0,1,.27,3.48c0,2.55-.9,5.77-2.75,9.62s-3.72,6.24-5.7,7.08c-1,.26-1.77.5-2.44.7s-1.31.94-2,2.24a.57.57,0,0,1-.2.41,2.59,2.59,0,0,1-.7-1.58q-1-10.71-5-32-2.37-7.74-10.23-17.09a20.32,20.32,0,0,0-9.21,4c-3.15,2.55-6.07,6.77-8.72,12.67s-4,10.93-4,15.12M635.61,124.2c0-8.72.74-14,2.25-16q5-6.29,21.72-6.27c10,0,15.11,1.27,15.11,3.82a.67.67,0,0,1-.3.6q-2.37,5.39-3.72,35.16c-.6,12.74-1.07,25.44-1.48,38.08-.53,11.79-.87,18-1,18.66-.53,8.45-1.4,14.28-2.68,17.47a26.06,26.06,0,0,1-8.41,11.49q8-8.44,8-31.2c0-2.51-.06-5-.2-7.37-.67,1.17-1.57,7.5-2.75,19q-1.65,14.94-8.24,20.51c-3.15,2.72-7.48,4.06-13,4.06-6.54,0-9.82-.87-9.82-2.58,0-.44,1.07-.87,3.25-1.27q7.24-1.56,7.24-24.34,0-4.82-3.62-43.4Q625,190.2,607.73,190.19q-11.72,0-18.17-12.67a50.35,50.35,0,0,1-5-22.89,71.7,71.7,0,0,1,1.58-14.71q3.27-14.64,6.87-22.29a47.84,47.84,0,0,1,14.44-17.9c2.15-1.61,6.27-2.44,12.27-2.44,9.82,0,17.43,1,22.79,3,.64.4,1,.67,1,.77s-.13.26-.36.4c-4.46,1.31-7.88,3.25-10.23,5.8,0,.13-2.41,3.38-7.27,9.72a55.71,55.71,0,0,0-11.7,34.35c0,9.12,2.52,13.67,7.48,13.67q8,0,13.64-20.14a41.75,41.75,0,0,0,1.17-4.62c0-1.68-.1-4.36-.27-8S635.61,126,635.61,124.2Zm-52.42,39.28c0,6.53,1.34,11.56,4,15a3.86,3.86,0,0,1,.61,1.68c0,2.08-2.32,3.82-7,5.19a33.83,33.83,0,0,1-9.62,1.58c-5.5,0-9.32-1.47-11.5-4.42-1.91-2.55-2.85-6.71-2.85-12.47,0-5.1.94-13.14,2.85-24.07,1.17-6.73,1.78-11.06,1.78-12.93a14,14,0,0,0-2.21-7.81,7.19,7.19,0,0,0-5.84-3.59c-4.12-.27-7.94,1.41-11.39,5q6-8.66,12.47-8.65c2.48,0,4.72,1.34,6.77,4a17.79,17.79,0,0,1,3.25,7.47v-.2a19.33,19.33,0,0,0-2.08-8.91c-1.71-3.62-4-5.47-7-5.6q-13.08-.41-20.51,22.76a110.88,110.88,0,0,0-5.6,34.18c0,3.46.2,7.14.57,11,2.24.7,3.35,1.4,3.35,2.07,0,1-1.88,1.55-5.6,1.55q-8.85,0-13.24-3.62-6.48-5.39-8.07-39.59-2-39.15-4.23-45.64a1.61,1.61,0,0,1-.2-.61q0-3.81,13.07-3.82,20.72,0,20.72,13.64c0,1.51-.87,8.62-2.65,21.32q11.11-27.71,25.34-30.73a37.11,37.11,0,0,1,8.24-1c13.54,0,20.35,8.32,20.35,24.94a172.67,172.67,0,0,1-1.95,21.05A173.6,173.6,0,0,0,583.19,163.48Zm-98-34.19h.61c0-5-2.21-10.52-6.64-16.62s-9.05-9.18-13.91-9.18a16.37,16.37,0,0,0-6.16,1.27,4.72,4.72,0,0,1-.81,2.95q-6.07,10.71-6.07,28.35,0,27.41,8.45,38.21a22.55,22.55,0,0,0,4,.4q5.69,0,8.25-4.22c1.1-1.71,2.11-4.86,3.05-9.42a106,106,0,0,0,2.44-21.72A60.2,60.2,0,0,0,475.4,120q-4.22-12.48-11.89-13.28c5.26,0,10,2.58,14.24,7.68A37.16,37.16,0,0,1,485.22,129.29ZM468.94,92.86c12,0,21.11,5.2,27.38,15.52Q504,121.25,504,140.49q0,18.34-9.69,31.64-10.8,14.63-28.79,14.61a46.61,46.61,0,0,1-16.39-3.15,38,38,0,0,1-20.91-18.74q-6.48-11.91-6.5-27.78a69.07,69.07,0,0,1,2.48-18.27q3.12-11.31,8.81-15.52a23.58,23.58,0,0,1,10-3.35C452,95.24,460.62,92.86,468.94,92.86ZM422.52,179.1c2.07,0,3.15.33,3.15,1.07,0,1.57-1.88,3.28-5.6,5.19a40.35,40.35,0,0,1-7.58,3.09,23.64,23.64,0,0,1-6.46.94c-2.45,0-4.13-.37-5.13-1.18q-6.19-5.07-9.62-30-7.84,32-21.49,32c-7.27,0-13.3-3.85-18.09-11.49q-5.68-8.85-7.65-21.52c0,.27-.06,1.81-.2,4.62a29.62,29.62,0,0,0,3.92,16.66q4.34,7.29,10.93,9.08c-6.84.3-11.76-2.41-14.85-8.17-2.54-4.56-3.82-13.65-3.82-27.19,0-3.08.2-7.7.57-13.84s.61-10.76.61-13.74q0-11.2-4-16.22a3.31,3.31,0,0,1-.8-1.84c0-2.82,3.08-5.4,9.25-7.68,5.09-2,9.32-3,12.67-3q12.27,0,12.27,18.07c0,3.85-.44,9.68-1.28,17.49A170.35,170.35,0,0,0,368,148.93q0,17.5,8.65,17.5,5,0,7.54-14.65c1-5.49,1.87-14.68,2.64-27.58.54-10,1.21-15.22,2.08-15.62.14-4.32.64-7.27,1.58-8.85,1.3-2.28,4-3.42,8-3.42q4.63,0,17.09,3.82c1.58.54,2.35,7.44,2.35,20.72q0,4.43-.2,13.27v13.24Q417.79,179.08,422.52,179.1Zm-138.16-7.18c.14,4,.71,6,1.68,6,1.17,0,2.38-.84,3.65-2.55Q286.82,173.48,284.36,171.92Zm18.37-10.32q18.45,0,30.53-9.42c1.51-1.3,3.52-3,6-5,.47.13.7,1,.7,2.58,0,5.93-1.4,13.14-4.22,21.58-3.42,10.42-7.3,15.62-11.7,15.62q-14.32,0-33.58-11.19c-2.41,6.8-4.92,10.22-7.47,10.22-5.36,0-9.65-4.63-12.87-13.84a91.7,91.7,0,0,1-4.39-21.52c-.81-4.59-1.61-11.43-2.48-20.51-.51,5.23-.77,10.35-.77,15.41a84.47,84.47,0,0,0,4.42,28.36q-9.25-15-9.62-46.62c-.13-14.75-.33-25.1-.6-31.14-.5-16.35-1.54-26-3.05-29a3.31,3.31,0,0,1-.2-1.07c0-1.84,2.78-3.25,8.28-4.22a66.75,66.75,0,0,1,11.46-1q19.65,0,19.64,8.25a26.59,26.59,0,0,1-1.58,7.07A56.53,56.53,0,0,0,289,84.05q-.6,4.77-2.15,26.51-2.26,29.35-2.68,47.89A51.67,51.67,0,0,0,302.73,161.6Z"/><path class="cls-2" d="M971.36,163.48c0,6.53,1.34,11.56,4,15a4,4,0,0,1,.6,1.68c0,2.08-2.31,3.82-7,5.19a33.83,33.83,0,0,1-9.62,1.58c-5.5,0-9.32-1.47-11.5-4.42-1.91-2.55-2.84-6.71-2.84-12.47,0-5.1.93-13.14,2.84-24.07a103.12,103.12,0,0,0,1.78-12.93,14,14,0,0,0-2.21-7.81,7.19,7.19,0,0,0-5.83-3.59c-4.13-.27-8,1.41-11.4,5q6-8.66,12.47-8.65c2.48,0,4.73,1.34,6.77,4a17.79,17.79,0,0,1,3.25,7.47v-.2a19.21,19.21,0,0,0-2.08-8.91c-1.71-3.62-4-5.47-7-5.6q-13.06-.41-20.51,22.76a110.88,110.88,0,0,0-5.6,34.18c0,3.46.2,7.14.57,11,2.25.7,3.35,1.4,3.35,2.07,0,1-1.87,1.55-5.59,1.55-5.9,0-10.33-1.21-13.24-3.62q-6.48-5.39-8.08-39.59-2-39.15-4.22-45.64a1.45,1.45,0,0,1-.2-.61q0-3.81,13.07-3.82,20.71,0,20.71,13.64c0,1.51-.87,8.62-2.65,21.32q11.12-27.71,25.34-30.73a37.2,37.2,0,0,1,8.25-1q20.31,0,20.34,24.94a174.25,174.25,0,0,1-1.94,21.05,171.58,171.58,0,0,0-1.91,21.18"/></g></g></svg>