<svg width="27" height="27" viewBox="0 0 27 27" fill="none" xmlns="http://www.w3.org/2000/svg">
<path d="M17.1544 14.6408C17.1544 16.6883 15.5182 18.3482 13.5 18.3482C11.4817 18.3482 9.84551 16.6883 9.84551 14.6408C9.84551 12.5932 11.4817 10.9334 13.5 10.9334C15.5182 10.9334 17.1544 12.5932 17.1544 14.6408Z" fill="#868686"/>
<path fill-rule="evenodd" clip-rule="evenodd" d="M25 21.4074C25 23.4815 23.2963 24 22.4444 24H4.55556C3.7037 24 2 23.4815 2 21.4074V7.66667C2 6.88889 2.46 5.33333 4.3 5.33333H7.87778C7.96296 5.33333 8.18444 5.28148 8.38889 5.07407C8.4681 4.99372 8.65854 4.78105 8.89187 4.52051C9.26079 4.10855 9.73691 3.57689 10.05 3.25926C10.1352 3.17284 10.3567 3 10.5611 3H16.4389C16.6433 3 16.8648 3.17284 16.95 3.25926C17.2631 3.57689 17.7392 4.10855 18.1081 4.52051C18.3414 4.781 18.5319 4.99373 18.6111 5.07407C18.8156 5.28148 19.037 5.33333 19.1222 5.33333H22.7C24.54 5.33333 25 6.88889 25 7.66667V21.4074ZM13.5 20.7074C16.8026 20.7074 19.4799 17.9913 19.4799 14.6408C19.4799 11.2903 16.8026 8.57411 13.5 8.57411C10.1973 8.57411 7.51995 11.2903 7.51995 14.6408C7.51995 17.9913 10.1973 20.7074 13.5 20.7074ZM17.1544 14.6408C17.1544 16.6883 15.5182 18.3482 13.5 18.3482C11.4817 18.3482 9.84551 16.6883 9.84551 14.6408C9.84551 12.5932 11.4817 10.9334 13.5 10.9334C15.5182 10.9334 17.1544 12.5932 17.1544 14.6408Z" fill="#868686"/>
</svg>
