<svg width="27" height="27" viewBox="0 0 27 27" fill="none" xmlns="http://www.w3.org/2000/svg">
<path fill-rule="evenodd" clip-rule="evenodd" d="M23 13.5C23 18.7467 18.7467 23 13.5 23C8.25329 23 4 18.7467 4 13.5C4 8.25329 8.25329 4 13.5 4C18.7467 4 23 8.25329 23 13.5ZM13.3304 10.2768C12.3804 10.2768 12.1429 11.0685 12.1429 11.4643H10.4464C10.4464 10.503 11.0232 8.58036 13.3304 8.58036C15.6375 8.58036 16.2143 10.503 16.2143 11.4643C16.2143 13.0929 14.8571 14.4048 14.1786 14.8571V15.875H12.4821V14.1786C13.1607 13.5565 14.5179 12.1429 14.5179 11.4643C14.5179 11.0685 14.2804 10.2768 13.3304 10.2768ZM13.3304 18.5893C13.7988 18.5893 14.1786 18.2095 14.1786 17.7411C14.1786 17.2726 13.7988 16.8929 13.3304 16.8929C12.8619 16.8929 12.4821 17.2726 12.4821 17.7411C12.4821 18.2095 12.8619 18.5893 13.3304 18.5893Z" fill="#22C50E"/>
</svg>
