<svg width="27" height="27" viewBox="0 0 27 27" fill="none" xmlns="http://www.w3.org/2000/svg">
<path d="M12.6667 9V10.6667H14.3333V9H12.6667Z" fill="#868686"/>
<path fill-rule="evenodd" clip-rule="evenodd" d="M12.6667 12.6667V18.3333H14.3333V12.6667H12.6667ZM12.6667 9V10.6667H14.3333V9H12.6667Z" fill="#868686"/>
<path fill-rule="evenodd" clip-rule="evenodd" d="M13.5 23C18.7467 23 23 18.7467 23 13.5C23 8.25329 18.7467 4 13.5 4C8.25329 4 4 8.25329 4 13.5C4 18.7467 8.25329 23 13.5 23ZM13.5 21.3333C17.8262 21.3333 21.3333 17.8262 21.3333 13.5C21.3333 9.17377 17.8262 5.66667 13.5 5.66667C9.17377 5.66667 5.66667 9.17377 5.66667 13.5C5.66667 17.8262 9.17377 21.3333 13.5 21.3333ZM12.6667 12.6667V18.3333H14.3333V12.6667H12.6667ZM12.6667 9V10.6667H14.3333V9H12.6667Z" fill="#868686"/>
</svg>
