<svg width="27" height="27" viewBox="0 0 27 27" fill="none" xmlns="http://www.w3.org/2000/svg">
<path fill-rule="evenodd" clip-rule="evenodd" d="M19.2558 11.4677C19.8372 11.4677 21 11.8065 21 13.1613V22.3065C21 23.6613 19.8372 24 19.2558 24H7.74419C7.16279 24 6 23.6613 6 22.3065V13.1613C6 11.8065 7.16279 11.4677 7.74419 11.4677H8.96512V7.40323C8.96512 5.93548 9.87209 3 13.5 3C17.1279 3 18.0349 5.93548 18.0349 7.40323V11.4677H19.2558ZM13.5 4.69355C15.7326 4.69355 16.2907 6.5 16.2907 7.40323V11.4677H10.7093V7.40323C10.7093 6.5 11.2674 4.69355 13.5 4.69355ZM13.5 19.5968C14.5596 19.5968 15.4186 18.7627 15.4186 17.7339C15.4186 16.705 14.5596 15.871 13.5 15.871C12.4404 15.871 11.5814 16.705 11.5814 17.7339C11.5814 18.7627 12.4404 19.5968 13.5 19.5968Z" fill="#868686"/>
</svg>
