<svg width="27" height="27" viewBox="0 0 27 27" fill="none" xmlns="http://www.w3.org/2000/svg">
<path fill-rule="evenodd" clip-rule="evenodd" d="M20.7414 24C21.8879 24 24 23.2759 24 20.7414V6.25862C24 5.17241 23.3483 3 20.7414 3H6.25862C5.11207 3 3 3.72414 3 6.25862V20.7414C3 21.8276 3.65172 24 6.25862 24H20.7414ZM12.7759 18.2069C12.3414 18.6414 11.8707 18.3879 11.6897 18.2069L9.69828 15.4914C9.40862 15.2017 9.15517 15.3103 8.97414 15.4914L6.25862 19.2931C6.07759 19.5345 5.71552 20.3793 6.25862 20.3793H20.7414C21.2845 20.3793 20.9224 19.5345 20.7414 19.2931L16.7586 13.1379C16.469 12.8483 16.2155 12.9569 16.0345 13.1379C15.1293 14.5862 13.2103 17.6276 12.7759 18.2069Z" fill="#868686"/>
</svg>
