<svg width="19" height="23" viewBox="0 0 19 23" fill="none" xmlns="http://www.w3.org/2000/svg">
<path d="M6.66667 16.8361H12M5 13.0492H14M14 9.2623H5M7.66667 4.09836H2.83333C1.36667 4.09836 1 5.36066 1 5.9918C1 10.0656 1 18.5918 1 20.1066C1 21.6213 2.22222 22 2.83333 22H16.1667C16.7778 22 18 21.6213 18 20.1066C18 18.5918 18 10.0656 18 5.9918C18 5.36066 17.6333 4.09836 16.1667 4.09836H11.3333M7.66667 4.09836V2.89344C7.66667 2.2623 8.03333 1 9.5 1C10.9667 1 11.3333 2.2623 11.3333 2.89344V4.09836M7.66667 4.09836H11.3333" stroke="white" stroke-width="1.5" stroke-linecap="round"/>
</svg>
